<?xml version="1.0" encoding="UTF-8"?>
<svg id="Layer_1" data-name="Layer 1" xmlns="http://www.w3.org/2000/svg" viewBox="0 0 111.22 40.68">
  <defs>
    <style>
      .cls-1 {
        fill-rule: evenodd;
      }

      .cls-1, .cls-2 {
        fill: #ed1c24;
      }
    </style>
  </defs>
  <path d="M45.34,9.54c0-1.41-.29-2.46-.86-3.14-.56-.68-1.52-1.1-2.85-1.28-.63-.24-.52-1.18,0-1.28h15.29s.03,0,.02.02v31.01c0,1.41.18,2.44.55,3.05.96,1.56,6.66,2.25,6.76.11.02-.44-.72-1.4-1.72-3.07-3.08-5.19-5.51-7.3-3.37-10.82,1.46-2.4,6.35-4.36,6.35-6.95,0-.37-.22-.7-.64-.98-.42-.28-1.09-.55-2.01-.8-.53-.19-.6-1.04,0-1.25h12.89c.96.3.51,1.21,0,1.25-3.02.47-7.05,3.86-8.64,5.89-.59.76-.37.89-.07,1.69l8.51,12.26c1.06,1.41,1.94,2.42,2.65,3.03.7.61,1.41.98,2.09,1.1.78.21.6,1.13,0,1.25-19.74,0-39.3-.1-59.04-.11-.14,0-.17-.03-.3-.07-.19-.07-.39-.3-.41-.52-.03-.28.35-.59.6-.66.81-.24,1.39-.67,1.74-1.27.4-.68.59-1.82.59-3.42v-12.27c0-1.84-.21-3.04-.63-3.6-.42-.57-1.19-.85-2.3-.85-.74,0-1.52.2-2.34.6-.46.23-.92.51-1.37.85v-3.08c1.18-.8,2.44-1.44,3.78-1.91,1.8-.64,3.66-.97,5.57-.97,3.01,0,5.25.8,6.71,2.41,1.46,1.6,2.19,4.08,2.19,7.41v11.15c0,1.65.25,2.85.84,3.58,1.56,1.95,6.86,1.95,8.56.07.59-.65.86-1.63.86-2.9V9.54Z"/>
  <path d="M111.22,27.38h0c0,4.06-1.58,7.29-4.76,9.7-3.16,2.4-7.44,3.6-12.82,3.6s-9.63-1.2-12.78-3.6c-3.16-2.41-4.73-5.64-4.73-9.7s1.57-7.33,4.72-9.72c3.15-2.39,7.41-3.59,12.79-3.59s9.68,1.19,12.83,3.59c3.16,2.39,4.74,5.63,4.74,9.72M93.64,38.96c2.35,0,4.13-.93,5.32-2.79,1.19-1.86,1.79-4.62,1.79-8.28,0-4.18-.57-7.25-1.71-9.19-1.13-1.94-2.94-2.91-5.39-2.91s-4.16.95-5.33,2.85c-1.17,1.9-1.76,4.82-1.76,8.73s.58,6.8,1.76,8.71c1.17,1.92,2.95,2.87,5.33,2.87"/>
  <path class="cls-2" d="M15.82,34.84c0,1.52.22,2.6.65,3.24.43.64,1.18,1.07,2.26,1.26.88.35.47,1.21,0,1.25H.51c-.68-.13-.64-1.13,0-1.25,1.33-.26,2.29-.73,2.85-1.39.57-.66.86-1.63.86-2.9v-15.22c0-1.41-.29-2.46-.86-3.15-.56-.69-1.52-1.11-2.85-1.29-.64-.19-.73-1.11,0-1.25h14.9l.41,20.71Z"/>
  <path class="cls-1" d="M8.72,0c3.49,0,6.33,2.69,6.33,6.01s-2.83,6.01-6.33,6.01-6.33-2.69-6.33-6.01S5.23,0,8.72,0"/>
</svg>