<?xml version="1.0" encoding="UTF-8"?>
<svg id="Layer_1" data-name="Layer 1" xmlns="http://www.w3.org/2000/svg" viewBox="0 0 863.56 315.88">
  <defs>
    <style>
      .cls-1, .cls-2 {
        fill: #ed1c24;
      }

      .cls-2 {
        fill-rule: evenodd;
      }

      .cls-3 {
        fill: #ebebe5;
      }
    </style>
  </defs>
  <path class="cls-3" d="M352.07,74.07c0-10.95-2.22-19.09-6.66-24.35-4.36-5.26-11.79-8.56-22.12-9.97-4.9-1.83-4.08-9.2,0-9.9h118.69c.15-.02.21.04.19.18v240.77c0,10.95,1.35,18.92,4.27,23.65,7.47,12.12,51.71,17.5,52.52.84.17-3.44-5.59-10.86-13.32-23.87-23.95-40.3-42.8-56.71-26.16-84.02,11.35-18.63,49.31-33.85,49.31-53.97,0-2.88-1.71-5.4-4.95-7.58-3.24-2.18-8.45-4.28-15.63-6.18-4.1-1.5-4.62-8.1,0-9.69h100.09c7.49,2.33,3.98,9.38,0,9.69-23.45,3.67-54.74,29.99-67.05,45.71-4.59,5.87-2.84,6.95-.58,13.12l66.1,95.16c8.2,10.95,15.03,18.81,20.58,23.51,5.47,4.78,10.93,7.58,16.23,8.56,6.05,1.64,4.64,8.74,0,9.69-153.24,0-305.15-.81-458.38-.82-1.06,0-1.34-.24-2.36-.58-1.49-.5-3.01-2.36-3.17-4.04-.2-2.16,2.75-4.58,4.63-5.15,6.26-1.9,10.78-5.19,13.5-9.82,3.09-5.26,4.61-14.11,4.61-26.53v-95.25c0-14.25-1.62-23.58-4.87-27.93-3.24-4.42-9.22-6.6-17.85-6.6-5.72,0-11.79,1.54-18.19,4.7-3.61,1.78-7.16,3.98-10.64,6.59v-23.9c9.17-6.21,18.93-11.16,29.34-14.84,14.01-4.98,28.44-7.51,43.21-7.51,23.4,0,40.74,6.25,52.09,18.74,11.36,12.42,16.99,31.66,16.99,57.55v86.54c0,12.77,1.95,22.14,6.49,27.79,12.14,15.1,53.23,15.14,66.43.54,4.57-5.05,6.66-12.63,6.66-22.53V74.07Z"/>
  <path class="cls-3" d="M863.56,212.58h0c0,31.52-12.29,56.65-36.92,75.32-24.58,18.67-57.77,27.98-99.53,27.98s-74.77-9.31-99.22-27.98c-24.51-18.67-36.74-43.8-36.74-75.32s12.23-56.89,36.62-75.46c24.45-18.57,57.53-27.84,99.34-27.84s75.13,9.26,99.65,27.84c24.51,18.58,36.8,43.74,36.8,75.46M727.11,302.54c18.22,0,32.04-7.22,41.27-21.68,9.23-14.45,13.88-35.89,13.88-64.31,0-32.49-4.4-56.26-13.27-71.34-8.8-15.08-22.8-22.6-41.88-22.6s-32.34,7.37-41.39,22.16c-9.11,14.79-13.63,37.39-13.63,67.8s4.52,52.77,13.63,67.66c9.05,14.89,22.87,22.31,41.39,22.31Z"/>
  <path class="cls-1" d="M122.86,270.54c0,11.79,1.71,20.21,5.04,25.2,3.33,4.98,9.14,8.28,17.51,9.76,6.86,2.7,3.67,9.38,0,9.69H3.99c-5.25-1.01-5.01-8.78,0-9.69,10.33-2.03,17.76-5.68,22.12-10.81,4.44-5.12,6.66-12.63,6.66-22.53v-118.2c0-10.95-2.22-19.09-6.66-24.49-4.36-5.33-11.79-8.63-22.12-10.04-4.99-1.45-5.63-8.63,0-9.69h118.97l-.09,160.8Z"/>
  <path class="cls-2" d="M67.7,0c27.12,0,49.11,20.89,49.11,46.64s-21.99,46.64-49.11,46.64-49.11-20.89-49.11-46.64S40.58,0,67.7,0"/>
</svg>